<?xml version="1.0" standalone="no"?>
<svg xmlns="http://www.w3.org/2000/svg" version="1.1" width="255" height="255">
	<!-- Created with https://api.qrserver.com (QR Code API, see goQR.me/api for information) -->
	<title>QR Code</title>
	<desc>This is the property of 
Ministry of Land 
bhumipedia.land.gov.bd
	<a href="https://bhumipedia.land.gov.bd">bhumipedia.land.gov.bd</a>


	</desc>
	<rect style="fill:rgb(255, 255, 255);fill-opacity:1" x="0" y="0" width="255" height="255" />
	<g id="elements">
		<path style="fill:rgb(0, 0, 0)" d="M 5,5 l 5,0 0,5 -5,0 z M 10,5 l 5,0 0,5 -5,0 z M 15,5 l 5,0 0,5 -5,0 z M 20,5 l 5,0 0,5 -5,0 z M 25,5 l 5,0 0,5 -5,0 z M 30,5 l 5,0 0,5 -5,0 z M 35,5 l 5,0 0,5 -5,0 z M 45,5 l 5,0 0,5 -5,0 z M 55,5 l 5,0 0,5 -5,0 z M 65,5 l 5,0 0,5 -5,0 z M 85,5 l 5,0 0,5 -5,0 z M 90,5 l 5,0 0,5 -5,0 z M 95,5 l 5,0 0,5 -5,0 z M 100,5 l 5,0 0,5 -5,0 z M 110,5 l 5,0 0,5 -5,0 z M 115,5 l 5,0 0,5 -5,0 z M 135,5 l 5,0 0,5 -5,0 z M 150,5 l 5,0 0,5 -5,0 z M 155,5 l 5,0 0,5 -5,0 z M 170,5 l 5,0 0,5 -5,0 z M 185,5 l 5,0 0,5 -5,0 z M 205,5 l 5,0 0,5 -5,0 z M 215,5 l 5,0 0,5 -5,0 z M 220,5 l 5,0 0,5 -5,0 z M 225,5 l 5,0 0,5 -5,0 z M 230,5 l 5,0 0,5 -5,0 z M 235,5 l 5,0 0,5 -5,0 z M 240,5 l 5,0 0,5 -5,0 z M 245,5 l 5,0 0,5 -5,0 z M 5,10 l 5,0 0,5 -5,0 z M 35,10 l 5,0 0,5 -5,0 z M 45,10 l 5,0 0,5 -5,0 z M 65,10 l 5,0 0,5 -5,0 z M 75,10 l 5,0 0,5 -5,0 z M 80,10 l 5,0 0,5 -5,0 z M 95,10 l 5,0 0,5 -5,0 z M 115,10 l 5,0 0,5 -5,0 z M 120,10 l 5,0 0,5 -5,0 z M 130,10 l 5,0 0,5 -5,0 z M 145,10 l 5,0 0,5 -5,0 z M 155,10 l 5,0 0,5 -5,0 z M 160,10 l 5,0 0,5 -5,0 z M 170,10 l 5,0 0,5 -5,0 z M 185,10 l 5,0 0,5 -5,0 z M 195,10 l 5,0 0,5 -5,0 z M 200,10 l 5,0 0,5 -5,0 z M 205,10 l 5,0 0,5 -5,0 z M 215,10 l 5,0 0,5 -5,0 z M 245,10 l 5,0 0,5 -5,0 z M 5,15 l 5,0 0,5 -5,0 z M 15,15 l 5,0 0,5 -5,0 z M 20,15 l 5,0 0,5 -5,0 z M 25,15 l 5,0 0,5 -5,0 z M 35,15 l 5,0 0,5 -5,0 z M 45,15 l 5,0 0,5 -5,0 z M 50,15 l 5,0 0,5 -5,0 z M 65,15 l 5,0 0,5 -5,0 z M 70,15 l 5,0 0,5 -5,0 z M 100,15 l 5,0 0,5 -5,0 z M 110,15 l 5,0 0,5 -5,0 z M 130,15 l 5,0 0,5 -5,0 z M 140,15 l 5,0 0,5 -5,0 z M 145,15 l 5,0 0,5 -5,0 z M 165,15 l 5,0 0,5 -5,0 z M 175,15 l 5,0 0,5 -5,0 z M 200,15 l 5,0 0,5 -5,0 z M 205,15 l 5,0 0,5 -5,0 z M 215,15 l 5,0 0,5 -5,0 z M 225,15 l 5,0 0,5 -5,0 z M 230,15 l 5,0 0,5 -5,0 z M 235,15 l 5,0 0,5 -5,0 z M 245,15 l 5,0 0,5 -5,0 z M 5,20 l 5,0 0,5 -5,0 z M 15,20 l 5,0 0,5 -5,0 z M 20,20 l 5,0 0,5 -5,0 z M 25,20 l 5,0 0,5 -5,0 z M 35,20 l 5,0 0,5 -5,0 z M 50,20 l 5,0 0,5 -5,0 z M 65,20 l 5,0 0,5 -5,0 z M 70,20 l 5,0 0,5 -5,0 z M 75,20 l 5,0 0,5 -5,0 z M 90,20 l 5,0 0,5 -5,0 z M 95,20 l 5,0 0,5 -5,0 z M 105,20 l 5,0 0,5 -5,0 z M 110,20 l 5,0 0,5 -5,0 z M 115,20 l 5,0 0,5 -5,0 z M 125,20 l 5,0 0,5 -5,0 z M 130,20 l 5,0 0,5 -5,0 z M 135,20 l 5,0 0,5 -5,0 z M 140,20 l 5,0 0,5 -5,0 z M 145,20 l 5,0 0,5 -5,0 z M 150,20 l 5,0 0,5 -5,0 z M 155,20 l 5,0 0,5 -5,0 z M 160,20 l 5,0 0,5 -5,0 z M 165,20 l 5,0 0,5 -5,0 z M 170,20 l 5,0 0,5 -5,0 z M 180,20 l 5,0 0,5 -5,0 z M 185,20 l 5,0 0,5 -5,0 z M 190,20 l 5,0 0,5 -5,0 z M 200,20 l 5,0 0,5 -5,0 z M 215,20 l 5,0 0,5 -5,0 z M 225,20 l 5,0 0,5 -5,0 z M 230,20 l 5,0 0,5 -5,0 z M 235,20 l 5,0 0,5 -5,0 z M 245,20 l 5,0 0,5 -5,0 z M 5,25 l 5,0 0,5 -5,0 z M 15,25 l 5,0 0,5 -5,0 z M 20,25 l 5,0 0,5 -5,0 z M 25,25 l 5,0 0,5 -5,0 z M 35,25 l 5,0 0,5 -5,0 z M 50,25 l 5,0 0,5 -5,0 z M 70,25 l 5,0 0,5 -5,0 z M 80,25 l 5,0 0,5 -5,0 z M 85,25 l 5,0 0,5 -5,0 z M 100,25 l 5,0 0,5 -5,0 z M 105,25 l 5,0 0,5 -5,0 z M 110,25 l 5,0 0,5 -5,0 z M 115,25 l 5,0 0,5 -5,0 z M 120,25 l 5,0 0,5 -5,0 z M 125,25 l 5,0 0,5 -5,0 z M 130,25 l 5,0 0,5 -5,0 z M 135,25 l 5,0 0,5 -5,0 z M 140,25 l 5,0 0,5 -5,0 z M 145,25 l 5,0 0,5 -5,0 z M 150,25 l 5,0 0,5 -5,0 z M 165,25 l 5,0 0,5 -5,0 z M 185,25 l 5,0 0,5 -5,0 z M 190,25 l 5,0 0,5 -5,0 z M 215,25 l 5,0 0,5 -5,0 z M 225,25 l 5,0 0,5 -5,0 z M 230,25 l 5,0 0,5 -5,0 z M 235,25 l 5,0 0,5 -5,0 z M 245,25 l 5,0 0,5 -5,0 z M 5,30 l 5,0 0,5 -5,0 z M 35,30 l 5,0 0,5 -5,0 z M 45,30 l 5,0 0,5 -5,0 z M 55,30 l 5,0 0,5 -5,0 z M 65,30 l 5,0 0,5 -5,0 z M 70,30 l 5,0 0,5 -5,0 z M 75,30 l 5,0 0,5 -5,0 z M 85,30 l 5,0 0,5 -5,0 z M 100,30 l 5,0 0,5 -5,0 z M 110,30 l 5,0 0,5 -5,0 z M 115,30 l 5,0 0,5 -5,0 z M 135,30 l 5,0 0,5 -5,0 z M 155,30 l 5,0 0,5 -5,0 z M 160,30 l 5,0 0,5 -5,0 z M 170,30 l 5,0 0,5 -5,0 z M 175,30 l 5,0 0,5 -5,0 z M 195,30 l 5,0 0,5 -5,0 z M 215,30 l 5,0 0,5 -5,0 z M 245,30 l 5,0 0,5 -5,0 z M 5,35 l 5,0 0,5 -5,0 z M 10,35 l 5,0 0,5 -5,0 z M 15,35 l 5,0 0,5 -5,0 z M 20,35 l 5,0 0,5 -5,0 z M 25,35 l 5,0 0,5 -5,0 z M 30,35 l 5,0 0,5 -5,0 z M 35,35 l 5,0 0,5 -5,0 z M 45,35 l 5,0 0,5 -5,0 z M 55,35 l 5,0 0,5 -5,0 z M 65,35 l 5,0 0,5 -5,0 z M 75,35 l 5,0 0,5 -5,0 z M 85,35 l 5,0 0,5 -5,0 z M 95,35 l 5,0 0,5 -5,0 z M 105,35 l 5,0 0,5 -5,0 z M 115,35 l 5,0 0,5 -5,0 z M 125,35 l 5,0 0,5 -5,0 z M 135,35 l 5,0 0,5 -5,0 z M 145,35 l 5,0 0,5 -5,0 z M 155,35 l 5,0 0,5 -5,0 z M 165,35 l 5,0 0,5 -5,0 z M 175,35 l 5,0 0,5 -5,0 z M 185,35 l 5,0 0,5 -5,0 z M 195,35 l 5,0 0,5 -5,0 z M 205,35 l 5,0 0,5 -5,0 z M 215,35 l 5,0 0,5 -5,0 z M 220,35 l 5,0 0,5 -5,0 z M 225,35 l 5,0 0,5 -5,0 z M 230,35 l 5,0 0,5 -5,0 z M 235,35 l 5,0 0,5 -5,0 z M 240,35 l 5,0 0,5 -5,0 z M 245,35 l 5,0 0,5 -5,0 z M 45,40 l 5,0 0,5 -5,0 z M 65,40 l 5,0 0,5 -5,0 z M 75,40 l 5,0 0,5 -5,0 z M 85,40 l 5,0 0,5 -5,0 z M 90,40 l 5,0 0,5 -5,0 z M 95,40 l 5,0 0,5 -5,0 z M 115,40 l 5,0 0,5 -5,0 z M 135,40 l 5,0 0,5 -5,0 z M 140,40 l 5,0 0,5 -5,0 z M 155,40 l 5,0 0,5 -5,0 z M 160,40 l 5,0 0,5 -5,0 z M 170,40 l 5,0 0,5 -5,0 z M 175,40 l 5,0 0,5 -5,0 z M 185,40 l 5,0 0,5 -5,0 z M 195,40 l 5,0 0,5 -5,0 z M 200,40 l 5,0 0,5 -5,0 z M 15,45 l 5,0 0,5 -5,0 z M 20,45 l 5,0 0,5 -5,0 z M 25,45 l 5,0 0,5 -5,0 z M 35,45 l 5,0 0,5 -5,0 z M 45,45 l 5,0 0,5 -5,0 z M 75,45 l 5,0 0,5 -5,0 z M 90,45 l 5,0 0,5 -5,0 z M 115,45 l 5,0 0,5 -5,0 z M 120,45 l 5,0 0,5 -5,0 z M 125,45 l 5,0 0,5 -5,0 z M 130,45 l 5,0 0,5 -5,0 z M 135,45 l 5,0 0,5 -5,0 z M 140,45 l 5,0 0,5 -5,0 z M 145,45 l 5,0 0,5 -5,0 z M 160,45 l 5,0 0,5 -5,0 z M 180,45 l 5,0 0,5 -5,0 z M 190,45 l 5,0 0,5 -5,0 z M 200,45 l 5,0 0,5 -5,0 z M 205,45 l 5,0 0,5 -5,0 z M 210,45 l 5,0 0,5 -5,0 z M 215,45 l 5,0 0,5 -5,0 z M 220,45 l 5,0 0,5 -5,0 z M 235,45 l 5,0 0,5 -5,0 z M 240,45 l 5,0 0,5 -5,0 z M 245,45 l 5,0 0,5 -5,0 z M 5,50 l 5,0 0,5 -5,0 z M 10,50 l 5,0 0,5 -5,0 z M 15,50 l 5,0 0,5 -5,0 z M 25,50 l 5,0 0,5 -5,0 z M 50,50 l 5,0 0,5 -5,0 z M 60,50 l 5,0 0,5 -5,0 z M 75,50 l 5,0 0,5 -5,0 z M 80,50 l 5,0 0,5 -5,0 z M 85,50 l 5,0 0,5 -5,0 z M 95,50 l 5,0 0,5 -5,0 z M 100,50 l 5,0 0,5 -5,0 z M 105,50 l 5,0 0,5 -5,0 z M 145,50 l 5,0 0,5 -5,0 z M 165,50 l 5,0 0,5 -5,0 z M 190,50 l 5,0 0,5 -5,0 z M 200,50 l 5,0 0,5 -5,0 z M 210,50 l 5,0 0,5 -5,0 z M 215,50 l 5,0 0,5 -5,0 z M 230,50 l 5,0 0,5 -5,0 z M 245,50 l 5,0 0,5 -5,0 z M 15,55 l 5,0 0,5 -5,0 z M 20,55 l 5,0 0,5 -5,0 z M 25,55 l 5,0 0,5 -5,0 z M 30,55 l 5,0 0,5 -5,0 z M 35,55 l 5,0 0,5 -5,0 z M 40,55 l 5,0 0,5 -5,0 z M 50,55 l 5,0 0,5 -5,0 z M 75,55 l 5,0 0,5 -5,0 z M 80,55 l 5,0 0,5 -5,0 z M 85,55 l 5,0 0,5 -5,0 z M 100,55 l 5,0 0,5 -5,0 z M 115,55 l 5,0 0,5 -5,0 z M 120,55 l 5,0 0,5 -5,0 z M 130,55 l 5,0 0,5 -5,0 z M 140,55 l 5,0 0,5 -5,0 z M 155,55 l 5,0 0,5 -5,0 z M 170,55 l 5,0 0,5 -5,0 z M 175,55 l 5,0 0,5 -5,0 z M 180,55 l 5,0 0,5 -5,0 z M 190,55 l 5,0 0,5 -5,0 z M 195,55 l 5,0 0,5 -5,0 z M 210,55 l 5,0 0,5 -5,0 z M 225,55 l 5,0 0,5 -5,0 z M 245,55 l 5,0 0,5 -5,0 z M 5,60 l 5,0 0,5 -5,0 z M 10,60 l 5,0 0,5 -5,0 z M 20,60 l 5,0 0,5 -5,0 z M 45,60 l 5,0 0,5 -5,0 z M 65,60 l 5,0 0,5 -5,0 z M 70,60 l 5,0 0,5 -5,0 z M 75,60 l 5,0 0,5 -5,0 z M 80,60 l 5,0 0,5 -5,0 z M 95,60 l 5,0 0,5 -5,0 z M 110,60 l 5,0 0,5 -5,0 z M 120,60 l 5,0 0,5 -5,0 z M 125,60 l 5,0 0,5 -5,0 z M 140,60 l 5,0 0,5 -5,0 z M 150,60 l 5,0 0,5 -5,0 z M 155,60 l 5,0 0,5 -5,0 z M 175,60 l 5,0 0,5 -5,0 z M 185,60 l 5,0 0,5 -5,0 z M 190,60 l 5,0 0,5 -5,0 z M 200,60 l 5,0 0,5 -5,0 z M 205,60 l 5,0 0,5 -5,0 z M 210,60 l 5,0 0,5 -5,0 z M 220,60 l 5,0 0,5 -5,0 z M 225,60 l 5,0 0,5 -5,0 z M 245,60 l 5,0 0,5 -5,0 z M 5,65 l 5,0 0,5 -5,0 z M 10,65 l 5,0 0,5 -5,0 z M 20,65 l 5,0 0,5 -5,0 z M 25,65 l 5,0 0,5 -5,0 z M 35,65 l 5,0 0,5 -5,0 z M 40,65 l 5,0 0,5 -5,0 z M 45,65 l 5,0 0,5 -5,0 z M 50,65 l 5,0 0,5 -5,0 z M 65,65 l 5,0 0,5 -5,0 z M 70,65 l 5,0 0,5 -5,0 z M 75,65 l 5,0 0,5 -5,0 z M 95,65 l 5,0 0,5 -5,0 z M 105,65 l 5,0 0,5 -5,0 z M 115,65 l 5,0 0,5 -5,0 z M 120,65 l 5,0 0,5 -5,0 z M 135,65 l 5,0 0,5 -5,0 z M 140,65 l 5,0 0,5 -5,0 z M 145,65 l 5,0 0,5 -5,0 z M 150,65 l 5,0 0,5 -5,0 z M 170,65 l 5,0 0,5 -5,0 z M 175,65 l 5,0 0,5 -5,0 z M 185,65 l 5,0 0,5 -5,0 z M 195,65 l 5,0 0,5 -5,0 z M 205,65 l 5,0 0,5 -5,0 z M 220,65 l 5,0 0,5 -5,0 z M 230,65 l 5,0 0,5 -5,0 z M 235,65 l 5,0 0,5 -5,0 z M 245,65 l 5,0 0,5 -5,0 z M 5,70 l 5,0 0,5 -5,0 z M 30,70 l 5,0 0,5 -5,0 z M 45,70 l 5,0 0,5 -5,0 z M 55,70 l 5,0 0,5 -5,0 z M 70,70 l 5,0 0,5 -5,0 z M 85,70 l 5,0 0,5 -5,0 z M 95,70 l 5,0 0,5 -5,0 z M 110,70 l 5,0 0,5 -5,0 z M 120,70 l 5,0 0,5 -5,0 z M 130,70 l 5,0 0,5 -5,0 z M 135,70 l 5,0 0,5 -5,0 z M 140,70 l 5,0 0,5 -5,0 z M 145,70 l 5,0 0,5 -5,0 z M 150,70 l 5,0 0,5 -5,0 z M 155,70 l 5,0 0,5 -5,0 z M 175,70 l 5,0 0,5 -5,0 z M 185,70 l 5,0 0,5 -5,0 z M 210,70 l 5,0 0,5 -5,0 z M 215,70 l 5,0 0,5 -5,0 z M 230,70 l 5,0 0,5 -5,0 z M 5,75 l 5,0 0,5 -5,0 z M 15,75 l 5,0 0,5 -5,0 z M 20,75 l 5,0 0,5 -5,0 z M 25,75 l 5,0 0,5 -5,0 z M 35,75 l 5,0 0,5 -5,0 z M 55,75 l 5,0 0,5 -5,0 z M 65,75 l 5,0 0,5 -5,0 z M 70,75 l 5,0 0,5 -5,0 z M 95,75 l 5,0 0,5 -5,0 z M 105,75 l 5,0 0,5 -5,0 z M 110,75 l 5,0 0,5 -5,0 z M 115,75 l 5,0 0,5 -5,0 z M 140,75 l 5,0 0,5 -5,0 z M 150,75 l 5,0 0,5 -5,0 z M 155,75 l 5,0 0,5 -5,0 z M 160,75 l 5,0 0,5 -5,0 z M 170,75 l 5,0 0,5 -5,0 z M 180,75 l 5,0 0,5 -5,0 z M 185,75 l 5,0 0,5 -5,0 z M 195,75 l 5,0 0,5 -5,0 z M 220,75 l 5,0 0,5 -5,0 z M 240,75 l 5,0 0,5 -5,0 z M 245,75 l 5,0 0,5 -5,0 z M 5,80 l 5,0 0,5 -5,0 z M 10,80 l 5,0 0,5 -5,0 z M 25,80 l 5,0 0,5 -5,0 z M 40,80 l 5,0 0,5 -5,0 z M 50,80 l 5,0 0,5 -5,0 z M 55,80 l 5,0 0,5 -5,0 z M 90,80 l 5,0 0,5 -5,0 z M 100,80 l 5,0 0,5 -5,0 z M 105,80 l 5,0 0,5 -5,0 z M 115,80 l 5,0 0,5 -5,0 z M 130,80 l 5,0 0,5 -5,0 z M 145,80 l 5,0 0,5 -5,0 z M 150,80 l 5,0 0,5 -5,0 z M 155,80 l 5,0 0,5 -5,0 z M 165,80 l 5,0 0,5 -5,0 z M 170,80 l 5,0 0,5 -5,0 z M 200,80 l 5,0 0,5 -5,0 z M 205,80 l 5,0 0,5 -5,0 z M 210,80 l 5,0 0,5 -5,0 z M 220,80 l 5,0 0,5 -5,0 z M 225,80 l 5,0 0,5 -5,0 z M 230,80 l 5,0 0,5 -5,0 z M 5,85 l 5,0 0,5 -5,0 z M 10,85 l 5,0 0,5 -5,0 z M 15,85 l 5,0 0,5 -5,0 z M 30,85 l 5,0 0,5 -5,0 z M 35,85 l 5,0 0,5 -5,0 z M 40,85 l 5,0 0,5 -5,0 z M 70,85 l 5,0 0,5 -5,0 z M 75,85 l 5,0 0,5 -5,0 z M 100,85 l 5,0 0,5 -5,0 z M 110,85 l 5,0 0,5 -5,0 z M 115,85 l 5,0 0,5 -5,0 z M 120,85 l 5,0 0,5 -5,0 z M 125,85 l 5,0 0,5 -5,0 z M 155,85 l 5,0 0,5 -5,0 z M 160,85 l 5,0 0,5 -5,0 z M 165,85 l 5,0 0,5 -5,0 z M 180,85 l 5,0 0,5 -5,0 z M 185,85 l 5,0 0,5 -5,0 z M 190,85 l 5,0 0,5 -5,0 z M 200,85 l 5,0 0,5 -5,0 z M 220,85 l 5,0 0,5 -5,0 z M 240,85 l 5,0 0,5 -5,0 z M 60,90 l 5,0 0,5 -5,0 z M 65,90 l 5,0 0,5 -5,0 z M 75,90 l 5,0 0,5 -5,0 z M 80,90 l 5,0 0,5 -5,0 z M 100,90 l 5,0 0,5 -5,0 z M 110,90 l 5,0 0,5 -5,0 z M 115,90 l 5,0 0,5 -5,0 z M 120,90 l 5,0 0,5 -5,0 z M 135,90 l 5,0 0,5 -5,0 z M 140,90 l 5,0 0,5 -5,0 z M 155,90 l 5,0 0,5 -5,0 z M 165,90 l 5,0 0,5 -5,0 z M 170,90 l 5,0 0,5 -5,0 z M 185,90 l 5,0 0,5 -5,0 z M 205,90 l 5,0 0,5 -5,0 z M 210,90 l 5,0 0,5 -5,0 z M 220,90 l 5,0 0,5 -5,0 z M 15,95 l 5,0 0,5 -5,0 z M 20,95 l 5,0 0,5 -5,0 z M 25,95 l 5,0 0,5 -5,0 z M 35,95 l 5,0 0,5 -5,0 z M 45,95 l 5,0 0,5 -5,0 z M 55,95 l 5,0 0,5 -5,0 z M 65,95 l 5,0 0,5 -5,0 z M 70,95 l 5,0 0,5 -5,0 z M 90,95 l 5,0 0,5 -5,0 z M 100,95 l 5,0 0,5 -5,0 z M 125,95 l 5,0 0,5 -5,0 z M 130,95 l 5,0 0,5 -5,0 z M 150,95 l 5,0 0,5 -5,0 z M 180,95 l 5,0 0,5 -5,0 z M 185,95 l 5,0 0,5 -5,0 z M 190,95 l 5,0 0,5 -5,0 z M 200,95 l 5,0 0,5 -5,0 z M 205,95 l 5,0 0,5 -5,0 z M 215,95 l 5,0 0,5 -5,0 z M 220,95 l 5,0 0,5 -5,0 z M 230,95 l 5,0 0,5 -5,0 z M 240,95 l 5,0 0,5 -5,0 z M 245,95 l 5,0 0,5 -5,0 z M 10,100 l 5,0 0,5 -5,0 z M 15,100 l 5,0 0,5 -5,0 z M 40,100 l 5,0 0,5 -5,0 z M 45,100 l 5,0 0,5 -5,0 z M 55,100 l 5,0 0,5 -5,0 z M 60,100 l 5,0 0,5 -5,0 z M 75,100 l 5,0 0,5 -5,0 z M 80,100 l 5,0 0,5 -5,0 z M 85,100 l 5,0 0,5 -5,0 z M 105,100 l 5,0 0,5 -5,0 z M 120,100 l 5,0 0,5 -5,0 z M 125,100 l 5,0 0,5 -5,0 z M 130,100 l 5,0 0,5 -5,0 z M 135,100 l 5,0 0,5 -5,0 z M 150,100 l 5,0 0,5 -5,0 z M 165,100 l 5,0 0,5 -5,0 z M 185,100 l 5,0 0,5 -5,0 z M 205,100 l 5,0 0,5 -5,0 z M 215,100 l 5,0 0,5 -5,0 z M 220,100 l 5,0 0,5 -5,0 z M 225,100 l 5,0 0,5 -5,0 z M 15,105 l 5,0 0,5 -5,0 z M 25,105 l 5,0 0,5 -5,0 z M 30,105 l 5,0 0,5 -5,0 z M 35,105 l 5,0 0,5 -5,0 z M 40,105 l 5,0 0,5 -5,0 z M 45,105 l 5,0 0,5 -5,0 z M 50,105 l 5,0 0,5 -5,0 z M 55,105 l 5,0 0,5 -5,0 z M 60,105 l 5,0 0,5 -5,0 z M 95,105 l 5,0 0,5 -5,0 z M 115,105 l 5,0 0,5 -5,0 z M 120,105 l 5,0 0,5 -5,0 z M 130,105 l 5,0 0,5 -5,0 z M 160,105 l 5,0 0,5 -5,0 z M 180,105 l 5,0 0,5 -5,0 z M 185,105 l 5,0 0,5 -5,0 z M 190,105 l 5,0 0,5 -5,0 z M 195,105 l 5,0 0,5 -5,0 z M 205,105 l 5,0 0,5 -5,0 z M 210,105 l 5,0 0,5 -5,0 z M 220,105 l 5,0 0,5 -5,0 z M 230,105 l 5,0 0,5 -5,0 z M 235,105 l 5,0 0,5 -5,0 z M 245,105 l 5,0 0,5 -5,0 z M 5,110 l 5,0 0,5 -5,0 z M 10,110 l 5,0 0,5 -5,0 z M 15,110 l 5,0 0,5 -5,0 z M 25,110 l 5,0 0,5 -5,0 z M 40,110 l 5,0 0,5 -5,0 z M 45,110 l 5,0 0,5 -5,0 z M 55,110 l 5,0 0,5 -5,0 z M 60,110 l 5,0 0,5 -5,0 z M 75,110 l 5,0 0,5 -5,0 z M 80,110 l 5,0 0,5 -5,0 z M 85,110 l 5,0 0,5 -5,0 z M 110,110 l 5,0 0,5 -5,0 z M 115,110 l 5,0 0,5 -5,0 z M 125,110 l 5,0 0,5 -5,0 z M 135,110 l 5,0 0,5 -5,0 z M 155,110 l 5,0 0,5 -5,0 z M 170,110 l 5,0 0,5 -5,0 z M 185,110 l 5,0 0,5 -5,0 z M 215,110 l 5,0 0,5 -5,0 z M 220,110 l 5,0 0,5 -5,0 z M 235,110 l 5,0 0,5 -5,0 z M 240,110 l 5,0 0,5 -5,0 z M 245,110 l 5,0 0,5 -5,0 z M 10,115 l 5,0 0,5 -5,0 z M 25,115 l 5,0 0,5 -5,0 z M 30,115 l 5,0 0,5 -5,0 z M 35,115 l 5,0 0,5 -5,0 z M 40,115 l 5,0 0,5 -5,0 z M 45,115 l 5,0 0,5 -5,0 z M 55,115 l 5,0 0,5 -5,0 z M 75,115 l 5,0 0,5 -5,0 z M 90,115 l 5,0 0,5 -5,0 z M 95,115 l 5,0 0,5 -5,0 z M 100,115 l 5,0 0,5 -5,0 z M 105,115 l 5,0 0,5 -5,0 z M 115,115 l 5,0 0,5 -5,0 z M 120,115 l 5,0 0,5 -5,0 z M 125,115 l 5,0 0,5 -5,0 z M 130,115 l 5,0 0,5 -5,0 z M 135,115 l 5,0 0,5 -5,0 z M 140,115 l 5,0 0,5 -5,0 z M 145,115 l 5,0 0,5 -5,0 z M 160,115 l 5,0 0,5 -5,0 z M 165,115 l 5,0 0,5 -5,0 z M 170,115 l 5,0 0,5 -5,0 z M 175,115 l 5,0 0,5 -5,0 z M 185,115 l 5,0 0,5 -5,0 z M 195,115 l 5,0 0,5 -5,0 z M 205,115 l 5,0 0,5 -5,0 z M 210,115 l 5,0 0,5 -5,0 z M 215,115 l 5,0 0,5 -5,0 z M 220,115 l 5,0 0,5 -5,0 z M 225,115 l 5,0 0,5 -5,0 z M 235,115 l 5,0 0,5 -5,0 z M 240,115 l 5,0 0,5 -5,0 z M 245,115 l 5,0 0,5 -5,0 z M 5,120 l 5,0 0,5 -5,0 z M 10,120 l 5,0 0,5 -5,0 z M 25,120 l 5,0 0,5 -5,0 z M 45,120 l 5,0 0,5 -5,0 z M 50,120 l 5,0 0,5 -5,0 z M 60,120 l 5,0 0,5 -5,0 z M 65,120 l 5,0 0,5 -5,0 z M 75,120 l 5,0 0,5 -5,0 z M 80,120 l 5,0 0,5 -5,0 z M 105,120 l 5,0 0,5 -5,0 z M 110,120 l 5,0 0,5 -5,0 z M 115,120 l 5,0 0,5 -5,0 z M 135,120 l 5,0 0,5 -5,0 z M 150,120 l 5,0 0,5 -5,0 z M 170,120 l 5,0 0,5 -5,0 z M 175,120 l 5,0 0,5 -5,0 z M 205,120 l 5,0 0,5 -5,0 z M 225,120 l 5,0 0,5 -5,0 z M 240,120 l 5,0 0,5 -5,0 z M 245,120 l 5,0 0,5 -5,0 z M 5,125 l 5,0 0,5 -5,0 z M 20,125 l 5,0 0,5 -5,0 z M 25,125 l 5,0 0,5 -5,0 z M 35,125 l 5,0 0,5 -5,0 z M 45,125 l 5,0 0,5 -5,0 z M 60,125 l 5,0 0,5 -5,0 z M 75,125 l 5,0 0,5 -5,0 z M 85,125 l 5,0 0,5 -5,0 z M 100,125 l 5,0 0,5 -5,0 z M 110,125 l 5,0 0,5 -5,0 z M 115,125 l 5,0 0,5 -5,0 z M 125,125 l 5,0 0,5 -5,0 z M 135,125 l 5,0 0,5 -5,0 z M 140,125 l 5,0 0,5 -5,0 z M 145,125 l 5,0 0,5 -5,0 z M 150,125 l 5,0 0,5 -5,0 z M 155,125 l 5,0 0,5 -5,0 z M 160,125 l 5,0 0,5 -5,0 z M 165,125 l 5,0 0,5 -5,0 z M 170,125 l 5,0 0,5 -5,0 z M 175,125 l 5,0 0,5 -5,0 z M 185,125 l 5,0 0,5 -5,0 z M 205,125 l 5,0 0,5 -5,0 z M 215,125 l 5,0 0,5 -5,0 z M 225,125 l 5,0 0,5 -5,0 z M 235,125 l 5,0 0,5 -5,0 z M 245,125 l 5,0 0,5 -5,0 z M 15,130 l 5,0 0,5 -5,0 z M 25,130 l 5,0 0,5 -5,0 z M 45,130 l 5,0 0,5 -5,0 z M 60,130 l 5,0 0,5 -5,0 z M 90,130 l 5,0 0,5 -5,0 z M 95,130 l 5,0 0,5 -5,0 z M 100,130 l 5,0 0,5 -5,0 z M 115,130 l 5,0 0,5 -5,0 z M 135,130 l 5,0 0,5 -5,0 z M 165,130 l 5,0 0,5 -5,0 z M 190,130 l 5,0 0,5 -5,0 z M 205,130 l 5,0 0,5 -5,0 z M 225,130 l 5,0 0,5 -5,0 z M 230,130 l 5,0 0,5 -5,0 z M 235,130 l 5,0 0,5 -5,0 z M 245,130 l 5,0 0,5 -5,0 z M 15,135 l 5,0 0,5 -5,0 z M 25,135 l 5,0 0,5 -5,0 z M 30,135 l 5,0 0,5 -5,0 z M 35,135 l 5,0 0,5 -5,0 z M 40,135 l 5,0 0,5 -5,0 z M 45,135 l 5,0 0,5 -5,0 z M 55,135 l 5,0 0,5 -5,0 z M 60,135 l 5,0 0,5 -5,0 z M 70,135 l 5,0 0,5 -5,0 z M 80,135 l 5,0 0,5 -5,0 z M 85,135 l 5,0 0,5 -5,0 z M 90,135 l 5,0 0,5 -5,0 z M 95,135 l 5,0 0,5 -5,0 z M 110,135 l 5,0 0,5 -5,0 z M 115,135 l 5,0 0,5 -5,0 z M 120,135 l 5,0 0,5 -5,0 z M 125,135 l 5,0 0,5 -5,0 z M 130,135 l 5,0 0,5 -5,0 z M 135,135 l 5,0 0,5 -5,0 z M 145,135 l 5,0 0,5 -5,0 z M 160,135 l 5,0 0,5 -5,0 z M 165,135 l 5,0 0,5 -5,0 z M 170,135 l 5,0 0,5 -5,0 z M 180,135 l 5,0 0,5 -5,0 z M 185,135 l 5,0 0,5 -5,0 z M 195,135 l 5,0 0,5 -5,0 z M 200,135 l 5,0 0,5 -5,0 z M 205,135 l 5,0 0,5 -5,0 z M 210,135 l 5,0 0,5 -5,0 z M 215,135 l 5,0 0,5 -5,0 z M 220,135 l 5,0 0,5 -5,0 z M 225,135 l 5,0 0,5 -5,0 z M 240,135 l 5,0 0,5 -5,0 z M 15,140 l 5,0 0,5 -5,0 z M 25,140 l 5,0 0,5 -5,0 z M 30,140 l 5,0 0,5 -5,0 z M 50,140 l 5,0 0,5 -5,0 z M 65,140 l 5,0 0,5 -5,0 z M 85,140 l 5,0 0,5 -5,0 z M 90,140 l 5,0 0,5 -5,0 z M 120,140 l 5,0 0,5 -5,0 z M 130,140 l 5,0 0,5 -5,0 z M 135,140 l 5,0 0,5 -5,0 z M 140,140 l 5,0 0,5 -5,0 z M 160,140 l 5,0 0,5 -5,0 z M 170,140 l 5,0 0,5 -5,0 z M 190,140 l 5,0 0,5 -5,0 z M 195,140 l 5,0 0,5 -5,0 z M 205,140 l 5,0 0,5 -5,0 z M 225,140 l 5,0 0,5 -5,0 z M 25,145 l 5,0 0,5 -5,0 z M 35,145 l 5,0 0,5 -5,0 z M 40,145 l 5,0 0,5 -5,0 z M 55,145 l 5,0 0,5 -5,0 z M 60,145 l 5,0 0,5 -5,0 z M 70,145 l 5,0 0,5 -5,0 z M 75,145 l 5,0 0,5 -5,0 z M 80,145 l 5,0 0,5 -5,0 z M 85,145 l 5,0 0,5 -5,0 z M 90,145 l 5,0 0,5 -5,0 z M 95,145 l 5,0 0,5 -5,0 z M 100,145 l 5,0 0,5 -5,0 z M 115,145 l 5,0 0,5 -5,0 z M 130,145 l 5,0 0,5 -5,0 z M 135,145 l 5,0 0,5 -5,0 z M 145,145 l 5,0 0,5 -5,0 z M 155,145 l 5,0 0,5 -5,0 z M 180,145 l 5,0 0,5 -5,0 z M 185,145 l 5,0 0,5 -5,0 z M 190,145 l 5,0 0,5 -5,0 z M 195,145 l 5,0 0,5 -5,0 z M 200,145 l 5,0 0,5 -5,0 z M 205,145 l 5,0 0,5 -5,0 z M 215,145 l 5,0 0,5 -5,0 z M 220,145 l 5,0 0,5 -5,0 z M 235,145 l 5,0 0,5 -5,0 z M 240,145 l 5,0 0,5 -5,0 z M 5,150 l 5,0 0,5 -5,0 z M 10,150 l 5,0 0,5 -5,0 z M 25,150 l 5,0 0,5 -5,0 z M 30,150 l 5,0 0,5 -5,0 z M 40,150 l 5,0 0,5 -5,0 z M 50,150 l 5,0 0,5 -5,0 z M 55,150 l 5,0 0,5 -5,0 z M 60,150 l 5,0 0,5 -5,0 z M 80,150 l 5,0 0,5 -5,0 z M 90,150 l 5,0 0,5 -5,0 z M 95,150 l 5,0 0,5 -5,0 z M 115,150 l 5,0 0,5 -5,0 z M 135,150 l 5,0 0,5 -5,0 z M 145,150 l 5,0 0,5 -5,0 z M 160,150 l 5,0 0,5 -5,0 z M 185,150 l 5,0 0,5 -5,0 z M 190,150 l 5,0 0,5 -5,0 z M 200,150 l 5,0 0,5 -5,0 z M 205,150 l 5,0 0,5 -5,0 z M 230,150 l 5,0 0,5 -5,0 z M 235,150 l 5,0 0,5 -5,0 z M 10,155 l 5,0 0,5 -5,0 z M 35,155 l 5,0 0,5 -5,0 z M 45,155 l 5,0 0,5 -5,0 z M 50,155 l 5,0 0,5 -5,0 z M 80,155 l 5,0 0,5 -5,0 z M 95,155 l 5,0 0,5 -5,0 z M 100,155 l 5,0 0,5 -5,0 z M 105,155 l 5,0 0,5 -5,0 z M 110,155 l 5,0 0,5 -5,0 z M 115,155 l 5,0 0,5 -5,0 z M 125,155 l 5,0 0,5 -5,0 z M 145,155 l 5,0 0,5 -5,0 z M 155,155 l 5,0 0,5 -5,0 z M 170,155 l 5,0 0,5 -5,0 z M 175,155 l 5,0 0,5 -5,0 z M 180,155 l 5,0 0,5 -5,0 z M 185,155 l 5,0 0,5 -5,0 z M 195,155 l 5,0 0,5 -5,0 z M 210,155 l 5,0 0,5 -5,0 z M 215,155 l 5,0 0,5 -5,0 z M 220,155 l 5,0 0,5 -5,0 z M 230,155 l 5,0 0,5 -5,0 z M 235,155 l 5,0 0,5 -5,0 z M 240,155 l 5,0 0,5 -5,0 z M 245,155 l 5,0 0,5 -5,0 z M 15,160 l 5,0 0,5 -5,0 z M 25,160 l 5,0 0,5 -5,0 z M 30,160 l 5,0 0,5 -5,0 z M 45,160 l 5,0 0,5 -5,0 z M 50,160 l 5,0 0,5 -5,0 z M 60,160 l 5,0 0,5 -5,0 z M 65,160 l 5,0 0,5 -5,0 z M 80,160 l 5,0 0,5 -5,0 z M 95,160 l 5,0 0,5 -5,0 z M 100,160 l 5,0 0,5 -5,0 z M 110,160 l 5,0 0,5 -5,0 z M 115,160 l 5,0 0,5 -5,0 z M 120,160 l 5,0 0,5 -5,0 z M 125,160 l 5,0 0,5 -5,0 z M 130,160 l 5,0 0,5 -5,0 z M 145,160 l 5,0 0,5 -5,0 z M 150,160 l 5,0 0,5 -5,0 z M 160,160 l 5,0 0,5 -5,0 z M 170,160 l 5,0 0,5 -5,0 z M 180,160 l 5,0 0,5 -5,0 z M 185,160 l 5,0 0,5 -5,0 z M 210,160 l 5,0 0,5 -5,0 z M 245,160 l 5,0 0,5 -5,0 z M 5,165 l 5,0 0,5 -5,0 z M 10,165 l 5,0 0,5 -5,0 z M 20,165 l 5,0 0,5 -5,0 z M 30,165 l 5,0 0,5 -5,0 z M 35,165 l 5,0 0,5 -5,0 z M 45,165 l 5,0 0,5 -5,0 z M 55,165 l 5,0 0,5 -5,0 z M 60,165 l 5,0 0,5 -5,0 z M 65,165 l 5,0 0,5 -5,0 z M 80,165 l 5,0 0,5 -5,0 z M 115,165 l 5,0 0,5 -5,0 z M 135,165 l 5,0 0,5 -5,0 z M 140,165 l 5,0 0,5 -5,0 z M 145,165 l 5,0 0,5 -5,0 z M 155,165 l 5,0 0,5 -5,0 z M 185,165 l 5,0 0,5 -5,0 z M 200,165 l 5,0 0,5 -5,0 z M 205,165 l 5,0 0,5 -5,0 z M 215,165 l 5,0 0,5 -5,0 z M 225,165 l 5,0 0,5 -5,0 z M 230,165 l 5,0 0,5 -5,0 z M 235,165 l 5,0 0,5 -5,0 z M 240,165 l 5,0 0,5 -5,0 z M 5,170 l 5,0 0,5 -5,0 z M 15,170 l 5,0 0,5 -5,0 z M 25,170 l 5,0 0,5 -5,0 z M 30,170 l 5,0 0,5 -5,0 z M 45,170 l 5,0 0,5 -5,0 z M 60,170 l 5,0 0,5 -5,0 z M 65,170 l 5,0 0,5 -5,0 z M 70,170 l 5,0 0,5 -5,0 z M 90,170 l 5,0 0,5 -5,0 z M 100,170 l 5,0 0,5 -5,0 z M 110,170 l 5,0 0,5 -5,0 z M 115,170 l 5,0 0,5 -5,0 z M 120,170 l 5,0 0,5 -5,0 z M 125,170 l 5,0 0,5 -5,0 z M 140,170 l 5,0 0,5 -5,0 z M 145,170 l 5,0 0,5 -5,0 z M 160,170 l 5,0 0,5 -5,0 z M 170,170 l 5,0 0,5 -5,0 z M 180,170 l 5,0 0,5 -5,0 z M 185,170 l 5,0 0,5 -5,0 z M 190,170 l 5,0 0,5 -5,0 z M 200,170 l 5,0 0,5 -5,0 z M 235,170 l 5,0 0,5 -5,0 z M 20,175 l 5,0 0,5 -5,0 z M 25,175 l 5,0 0,5 -5,0 z M 30,175 l 5,0 0,5 -5,0 z M 35,175 l 5,0 0,5 -5,0 z M 40,175 l 5,0 0,5 -5,0 z M 45,175 l 5,0 0,5 -5,0 z M 50,175 l 5,0 0,5 -5,0 z M 55,175 l 5,0 0,5 -5,0 z M 65,175 l 5,0 0,5 -5,0 z M 70,175 l 5,0 0,5 -5,0 z M 75,175 l 5,0 0,5 -5,0 z M 90,175 l 5,0 0,5 -5,0 z M 100,175 l 5,0 0,5 -5,0 z M 110,175 l 5,0 0,5 -5,0 z M 115,175 l 5,0 0,5 -5,0 z M 120,175 l 5,0 0,5 -5,0 z M 130,175 l 5,0 0,5 -5,0 z M 135,175 l 5,0 0,5 -5,0 z M 140,175 l 5,0 0,5 -5,0 z M 145,175 l 5,0 0,5 -5,0 z M 150,175 l 5,0 0,5 -5,0 z M 170,175 l 5,0 0,5 -5,0 z M 175,175 l 5,0 0,5 -5,0 z M 185,175 l 5,0 0,5 -5,0 z M 195,175 l 5,0 0,5 -5,0 z M 205,175 l 5,0 0,5 -5,0 z M 210,175 l 5,0 0,5 -5,0 z M 215,175 l 5,0 0,5 -5,0 z M 230,175 l 5,0 0,5 -5,0 z M 235,175 l 5,0 0,5 -5,0 z M 245,175 l 5,0 0,5 -5,0 z M 5,180 l 5,0 0,5 -5,0 z M 15,180 l 5,0 0,5 -5,0 z M 25,180 l 5,0 0,5 -5,0 z M 30,180 l 5,0 0,5 -5,0 z M 40,180 l 5,0 0,5 -5,0 z M 45,180 l 5,0 0,5 -5,0 z M 50,180 l 5,0 0,5 -5,0 z M 65,180 l 5,0 0,5 -5,0 z M 70,180 l 5,0 0,5 -5,0 z M 90,180 l 5,0 0,5 -5,0 z M 105,180 l 5,0 0,5 -5,0 z M 110,180 l 5,0 0,5 -5,0 z M 115,180 l 5,0 0,5 -5,0 z M 120,180 l 5,0 0,5 -5,0 z M 125,180 l 5,0 0,5 -5,0 z M 145,180 l 5,0 0,5 -5,0 z M 150,180 l 5,0 0,5 -5,0 z M 170,180 l 5,0 0,5 -5,0 z M 190,180 l 5,0 0,5 -5,0 z M 195,180 l 5,0 0,5 -5,0 z M 205,180 l 5,0 0,5 -5,0 z M 210,180 l 5,0 0,5 -5,0 z M 220,180 l 5,0 0,5 -5,0 z M 245,180 l 5,0 0,5 -5,0 z M 10,185 l 5,0 0,5 -5,0 z M 15,185 l 5,0 0,5 -5,0 z M 35,185 l 5,0 0,5 -5,0 z M 40,185 l 5,0 0,5 -5,0 z M 45,185 l 5,0 0,5 -5,0 z M 60,185 l 5,0 0,5 -5,0 z M 65,185 l 5,0 0,5 -5,0 z M 80,185 l 5,0 0,5 -5,0 z M 105,185 l 5,0 0,5 -5,0 z M 110,185 l 5,0 0,5 -5,0 z M 115,185 l 5,0 0,5 -5,0 z M 120,185 l 5,0 0,5 -5,0 z M 130,185 l 5,0 0,5 -5,0 z M 155,185 l 5,0 0,5 -5,0 z M 160,185 l 5,0 0,5 -5,0 z M 165,185 l 5,0 0,5 -5,0 z M 180,185 l 5,0 0,5 -5,0 z M 185,185 l 5,0 0,5 -5,0 z M 195,185 l 5,0 0,5 -5,0 z M 200,185 l 5,0 0,5 -5,0 z M 210,185 l 5,0 0,5 -5,0 z M 215,185 l 5,0 0,5 -5,0 z M 225,185 l 5,0 0,5 -5,0 z M 230,185 l 5,0 0,5 -5,0 z M 235,185 l 5,0 0,5 -5,0 z M 240,185 l 5,0 0,5 -5,0 z M 245,185 l 5,0 0,5 -5,0 z M 10,190 l 5,0 0,5 -5,0 z M 15,190 l 5,0 0,5 -5,0 z M 20,190 l 5,0 0,5 -5,0 z M 25,190 l 5,0 0,5 -5,0 z M 30,190 l 5,0 0,5 -5,0 z M 40,190 l 5,0 0,5 -5,0 z M 50,190 l 5,0 0,5 -5,0 z M 55,190 l 5,0 0,5 -5,0 z M 60,190 l 5,0 0,5 -5,0 z M 65,190 l 5,0 0,5 -5,0 z M 70,190 l 5,0 0,5 -5,0 z M 75,190 l 5,0 0,5 -5,0 z M 80,190 l 5,0 0,5 -5,0 z M 95,190 l 5,0 0,5 -5,0 z M 120,190 l 5,0 0,5 -5,0 z M 130,190 l 5,0 0,5 -5,0 z M 135,190 l 5,0 0,5 -5,0 z M 150,190 l 5,0 0,5 -5,0 z M 165,190 l 5,0 0,5 -5,0 z M 170,190 l 5,0 0,5 -5,0 z M 190,190 l 5,0 0,5 -5,0 z M 200,190 l 5,0 0,5 -5,0 z M 205,190 l 5,0 0,5 -5,0 z M 210,190 l 5,0 0,5 -5,0 z M 215,190 l 5,0 0,5 -5,0 z M 220,190 l 5,0 0,5 -5,0 z M 235,190 l 5,0 0,5 -5,0 z M 10,195 l 5,0 0,5 -5,0 z M 30,195 l 5,0 0,5 -5,0 z M 35,195 l 5,0 0,5 -5,0 z M 55,195 l 5,0 0,5 -5,0 z M 65,195 l 5,0 0,5 -5,0 z M 70,195 l 5,0 0,5 -5,0 z M 75,195 l 5,0 0,5 -5,0 z M 80,195 l 5,0 0,5 -5,0 z M 85,195 l 5,0 0,5 -5,0 z M 105,195 l 5,0 0,5 -5,0 z M 110,195 l 5,0 0,5 -5,0 z M 130,195 l 5,0 0,5 -5,0 z M 135,195 l 5,0 0,5 -5,0 z M 140,195 l 5,0 0,5 -5,0 z M 155,195 l 5,0 0,5 -5,0 z M 160,195 l 5,0 0,5 -5,0 z M 165,195 l 5,0 0,5 -5,0 z M 185,195 l 5,0 0,5 -5,0 z M 195,195 l 5,0 0,5 -5,0 z M 200,195 l 5,0 0,5 -5,0 z M 210,195 l 5,0 0,5 -5,0 z M 215,195 l 5,0 0,5 -5,0 z M 225,195 l 5,0 0,5 -5,0 z M 230,195 l 5,0 0,5 -5,0 z M 235,195 l 5,0 0,5 -5,0 z M 240,195 l 5,0 0,5 -5,0 z M 245,195 l 5,0 0,5 -5,0 z M 10,200 l 5,0 0,5 -5,0 z M 15,200 l 5,0 0,5 -5,0 z M 20,200 l 5,0 0,5 -5,0 z M 60,200 l 5,0 0,5 -5,0 z M 75,200 l 5,0 0,5 -5,0 z M 90,200 l 5,0 0,5 -5,0 z M 105,200 l 5,0 0,5 -5,0 z M 110,200 l 5,0 0,5 -5,0 z M 125,200 l 5,0 0,5 -5,0 z M 130,200 l 5,0 0,5 -5,0 z M 145,200 l 5,0 0,5 -5,0 z M 155,200 l 5,0 0,5 -5,0 z M 165,200 l 5,0 0,5 -5,0 z M 175,200 l 5,0 0,5 -5,0 z M 190,200 l 5,0 0,5 -5,0 z M 195,200 l 5,0 0,5 -5,0 z M 205,200 l 5,0 0,5 -5,0 z M 235,200 l 5,0 0,5 -5,0 z M 240,200 l 5,0 0,5 -5,0 z M 245,200 l 5,0 0,5 -5,0 z M 5,205 l 5,0 0,5 -5,0 z M 10,205 l 5,0 0,5 -5,0 z M 15,205 l 5,0 0,5 -5,0 z M 35,205 l 5,0 0,5 -5,0 z M 55,205 l 5,0 0,5 -5,0 z M 70,205 l 5,0 0,5 -5,0 z M 75,205 l 5,0 0,5 -5,0 z M 85,205 l 5,0 0,5 -5,0 z M 115,205 l 5,0 0,5 -5,0 z M 120,205 l 5,0 0,5 -5,0 z M 125,205 l 5,0 0,5 -5,0 z M 130,205 l 5,0 0,5 -5,0 z M 135,205 l 5,0 0,5 -5,0 z M 140,205 l 5,0 0,5 -5,0 z M 150,205 l 5,0 0,5 -5,0 z M 155,205 l 5,0 0,5 -5,0 z M 160,205 l 5,0 0,5 -5,0 z M 170,205 l 5,0 0,5 -5,0 z M 175,205 l 5,0 0,5 -5,0 z M 180,205 l 5,0 0,5 -5,0 z M 185,205 l 5,0 0,5 -5,0 z M 195,205 l 5,0 0,5 -5,0 z M 200,205 l 5,0 0,5 -5,0 z M 205,205 l 5,0 0,5 -5,0 z M 210,205 l 5,0 0,5 -5,0 z M 215,205 l 5,0 0,5 -5,0 z M 220,205 l 5,0 0,5 -5,0 z M 225,205 l 5,0 0,5 -5,0 z M 230,205 l 5,0 0,5 -5,0 z M 45,210 l 5,0 0,5 -5,0 z M 50,210 l 5,0 0,5 -5,0 z M 60,210 l 5,0 0,5 -5,0 z M 70,210 l 5,0 0,5 -5,0 z M 95,210 l 5,0 0,5 -5,0 z M 115,210 l 5,0 0,5 -5,0 z M 135,210 l 5,0 0,5 -5,0 z M 140,210 l 5,0 0,5 -5,0 z M 155,210 l 5,0 0,5 -5,0 z M 165,210 l 5,0 0,5 -5,0 z M 175,210 l 5,0 0,5 -5,0 z M 180,210 l 5,0 0,5 -5,0 z M 185,210 l 5,0 0,5 -5,0 z M 190,210 l 5,0 0,5 -5,0 z M 195,210 l 5,0 0,5 -5,0 z M 200,210 l 5,0 0,5 -5,0 z M 205,210 l 5,0 0,5 -5,0 z M 225,210 l 5,0 0,5 -5,0 z M 230,210 l 5,0 0,5 -5,0 z M 235,210 l 5,0 0,5 -5,0 z M 240,210 l 5,0 0,5 -5,0 z M 5,215 l 5,0 0,5 -5,0 z M 10,215 l 5,0 0,5 -5,0 z M 15,215 l 5,0 0,5 -5,0 z M 20,215 l 5,0 0,5 -5,0 z M 25,215 l 5,0 0,5 -5,0 z M 30,215 l 5,0 0,5 -5,0 z M 35,215 l 5,0 0,5 -5,0 z M 50,215 l 5,0 0,5 -5,0 z M 70,215 l 5,0 0,5 -5,0 z M 75,215 l 5,0 0,5 -5,0 z M 85,215 l 5,0 0,5 -5,0 z M 105,215 l 5,0 0,5 -5,0 z M 110,215 l 5,0 0,5 -5,0 z M 115,215 l 5,0 0,5 -5,0 z M 125,215 l 5,0 0,5 -5,0 z M 135,215 l 5,0 0,5 -5,0 z M 145,215 l 5,0 0,5 -5,0 z M 150,215 l 5,0 0,5 -5,0 z M 155,215 l 5,0 0,5 -5,0 z M 160,215 l 5,0 0,5 -5,0 z M 165,215 l 5,0 0,5 -5,0 z M 170,215 l 5,0 0,5 -5,0 z M 180,215 l 5,0 0,5 -5,0 z M 185,215 l 5,0 0,5 -5,0 z M 200,215 l 5,0 0,5 -5,0 z M 205,215 l 5,0 0,5 -5,0 z M 215,215 l 5,0 0,5 -5,0 z M 225,215 l 5,0 0,5 -5,0 z M 230,215 l 5,0 0,5 -5,0 z M 240,215 l 5,0 0,5 -5,0 z M 245,215 l 5,0 0,5 -5,0 z M 5,220 l 5,0 0,5 -5,0 z M 35,220 l 5,0 0,5 -5,0 z M 60,220 l 5,0 0,5 -5,0 z M 70,220 l 5,0 0,5 -5,0 z M 80,220 l 5,0 0,5 -5,0 z M 90,220 l 5,0 0,5 -5,0 z M 95,220 l 5,0 0,5 -5,0 z M 115,220 l 5,0 0,5 -5,0 z M 135,220 l 5,0 0,5 -5,0 z M 145,220 l 5,0 0,5 -5,0 z M 155,220 l 5,0 0,5 -5,0 z M 165,220 l 5,0 0,5 -5,0 z M 170,220 l 5,0 0,5 -5,0 z M 200,220 l 5,0 0,5 -5,0 z M 205,220 l 5,0 0,5 -5,0 z M 225,220 l 5,0 0,5 -5,0 z M 245,220 l 5,0 0,5 -5,0 z M 5,225 l 5,0 0,5 -5,0 z M 15,225 l 5,0 0,5 -5,0 z M 20,225 l 5,0 0,5 -5,0 z M 25,225 l 5,0 0,5 -5,0 z M 35,225 l 5,0 0,5 -5,0 z M 45,225 l 5,0 0,5 -5,0 z M 55,225 l 5,0 0,5 -5,0 z M 60,225 l 5,0 0,5 -5,0 z M 70,225 l 5,0 0,5 -5,0 z M 75,225 l 5,0 0,5 -5,0 z M 80,225 l 5,0 0,5 -5,0 z M 95,225 l 5,0 0,5 -5,0 z M 115,225 l 5,0 0,5 -5,0 z M 120,225 l 5,0 0,5 -5,0 z M 125,225 l 5,0 0,5 -5,0 z M 130,225 l 5,0 0,5 -5,0 z M 135,225 l 5,0 0,5 -5,0 z M 140,225 l 5,0 0,5 -5,0 z M 150,225 l 5,0 0,5 -5,0 z M 155,225 l 5,0 0,5 -5,0 z M 160,225 l 5,0 0,5 -5,0 z M 170,225 l 5,0 0,5 -5,0 z M 185,225 l 5,0 0,5 -5,0 z M 200,225 l 5,0 0,5 -5,0 z M 205,225 l 5,0 0,5 -5,0 z M 210,225 l 5,0 0,5 -5,0 z M 215,225 l 5,0 0,5 -5,0 z M 220,225 l 5,0 0,5 -5,0 z M 225,225 l 5,0 0,5 -5,0 z M 230,225 l 5,0 0,5 -5,0 z M 235,225 l 5,0 0,5 -5,0 z M 245,225 l 5,0 0,5 -5,0 z M 5,230 l 5,0 0,5 -5,0 z M 15,230 l 5,0 0,5 -5,0 z M 20,230 l 5,0 0,5 -5,0 z M 25,230 l 5,0 0,5 -5,0 z M 35,230 l 5,0 0,5 -5,0 z M 45,230 l 5,0 0,5 -5,0 z M 60,230 l 5,0 0,5 -5,0 z M 70,230 l 5,0 0,5 -5,0 z M 75,230 l 5,0 0,5 -5,0 z M 85,230 l 5,0 0,5 -5,0 z M 115,230 l 5,0 0,5 -5,0 z M 130,230 l 5,0 0,5 -5,0 z M 140,230 l 5,0 0,5 -5,0 z M 145,230 l 5,0 0,5 -5,0 z M 150,230 l 5,0 0,5 -5,0 z M 165,230 l 5,0 0,5 -5,0 z M 190,230 l 5,0 0,5 -5,0 z M 210,230 l 5,0 0,5 -5,0 z M 215,230 l 5,0 0,5 -5,0 z M 220,230 l 5,0 0,5 -5,0 z M 225,230 l 5,0 0,5 -5,0 z M 230,230 l 5,0 0,5 -5,0 z M 245,230 l 5,0 0,5 -5,0 z M 5,235 l 5,0 0,5 -5,0 z M 15,235 l 5,0 0,5 -5,0 z M 20,235 l 5,0 0,5 -5,0 z M 25,235 l 5,0 0,5 -5,0 z M 35,235 l 5,0 0,5 -5,0 z M 45,235 l 5,0 0,5 -5,0 z M 55,235 l 5,0 0,5 -5,0 z M 75,235 l 5,0 0,5 -5,0 z M 80,235 l 5,0 0,5 -5,0 z M 85,235 l 5,0 0,5 -5,0 z M 95,235 l 5,0 0,5 -5,0 z M 120,235 l 5,0 0,5 -5,0 z M 130,235 l 5,0 0,5 -5,0 z M 135,235 l 5,0 0,5 -5,0 z M 140,235 l 5,0 0,5 -5,0 z M 145,235 l 5,0 0,5 -5,0 z M 150,235 l 5,0 0,5 -5,0 z M 155,235 l 5,0 0,5 -5,0 z M 160,235 l 5,0 0,5 -5,0 z M 165,235 l 5,0 0,5 -5,0 z M 175,235 l 5,0 0,5 -5,0 z M 180,235 l 5,0 0,5 -5,0 z M 185,235 l 5,0 0,5 -5,0 z M 190,235 l 5,0 0,5 -5,0 z M 195,235 l 5,0 0,5 -5,0 z M 200,235 l 5,0 0,5 -5,0 z M 210,235 l 5,0 0,5 -5,0 z M 220,235 l 5,0 0,5 -5,0 z M 230,235 l 5,0 0,5 -5,0 z M 240,235 l 5,0 0,5 -5,0 z M 245,235 l 5,0 0,5 -5,0 z M 5,240 l 5,0 0,5 -5,0 z M 35,240 l 5,0 0,5 -5,0 z M 50,240 l 5,0 0,5 -5,0 z M 55,240 l 5,0 0,5 -5,0 z M 65,240 l 5,0 0,5 -5,0 z M 85,240 l 5,0 0,5 -5,0 z M 100,240 l 5,0 0,5 -5,0 z M 105,240 l 5,0 0,5 -5,0 z M 110,240 l 5,0 0,5 -5,0 z M 115,240 l 5,0 0,5 -5,0 z M 120,240 l 5,0 0,5 -5,0 z M 165,240 l 5,0 0,5 -5,0 z M 175,240 l 5,0 0,5 -5,0 z M 190,240 l 5,0 0,5 -5,0 z M 195,240 l 5,0 0,5 -5,0 z M 210,240 l 5,0 0,5 -5,0 z M 215,240 l 5,0 0,5 -5,0 z M 220,240 l 5,0 0,5 -5,0 z M 225,240 l 5,0 0,5 -5,0 z M 245,240 l 5,0 0,5 -5,0 z M 5,245 l 5,0 0,5 -5,0 z M 10,245 l 5,0 0,5 -5,0 z M 15,245 l 5,0 0,5 -5,0 z M 20,245 l 5,0 0,5 -5,0 z M 25,245 l 5,0 0,5 -5,0 z M 30,245 l 5,0 0,5 -5,0 z M 35,245 l 5,0 0,5 -5,0 z M 55,245 l 5,0 0,5 -5,0 z M 65,245 l 5,0 0,5 -5,0 z M 70,245 l 5,0 0,5 -5,0 z M 75,245 l 5,0 0,5 -5,0 z M 80,245 l 5,0 0,5 -5,0 z M 85,245 l 5,0 0,5 -5,0 z M 95,245 l 5,0 0,5 -5,0 z M 100,245 l 5,0 0,5 -5,0 z M 105,245 l 5,0 0,5 -5,0 z M 110,245 l 5,0 0,5 -5,0 z M 120,245 l 5,0 0,5 -5,0 z M 125,245 l 5,0 0,5 -5,0 z M 160,245 l 5,0 0,5 -5,0 z M 180,245 l 5,0 0,5 -5,0 z M 185,245 l 5,0 0,5 -5,0 z M 190,245 l 5,0 0,5 -5,0 z M 195,245 l 5,0 0,5 -5,0 z M 200,245 l 5,0 0,5 -5,0 z M 230,245 l 5,0 0,5 -5,0 z M 235,245 l 5,0 0,5 -5,0 z M 240,245 l 5,0 0,5 -5,0 z M 245,245 l 5,0 0,5 -5,0 z " />
	</g>
</svg>
